<svg version="1.1" viewBox="0.0 0.0 480.0 480.0" fill="none" stroke="none" stroke-linecap="square" stroke-miterlimit="10" xmlns:xlink="http://www.w3.org/1999/xlink" xmlns="http://www.w3.org/2000/svg"><clipPath id="p.0"><path d="m0 0l480.0 0l0 480.0l-480.0 0l0 -480.0z" clip-rule="nonzero"/></clipPath><g clip-path="url(#p.0)"><path fill="#000000" fill-opacity="0.0" d="m0 0l480.0 0l0 480.0l-480.0 0z" fill-rule="evenodd"/><path fill="#13161a" d="m-0.001312336 239.99081c0 -132.54834 107.45166 -240.0 240.0 -240.0c63.651947 0 124.6969 25.28564 169.70563 70.29437c45.008728 45.008728 70.29437 106.053665 70.29437 169.70563c0 132.54834 -107.45166 240.0 -240.0 240.0c-132.54834 0 -240.0 -107.45166 -240.0 -240.0z" fill-rule="evenodd"/><path stroke="#000000" stroke-width="1.0" stroke-linejoin="round" stroke-linecap="butt" d="m-0.001312336 239.99081c0 -132.54834 107.45166 -240.0 240.0 -240.0c63.651947 0 124.6969 25.28564 169.70563 70.29437c45.008728 45.008728 70.29437 106.053665 70.29437 169.70563c0 132.54834 -107.45166 240.0 -240.0 240.0c-132.54834 0 -240.0 -107.45166 -240.0 -240.0z" fill-rule="evenodd"/><path fill="#000000" fill-opacity="0.0" d="m239.99869 318.58923l0 161.41733" fill-rule="evenodd"/><path stroke="#5b7187" stroke-width="16.0" stroke-linejoin="round" stroke-linecap="butt" d="m239.99869 318.58923l0 65.41733" fill-rule="evenodd"/><path fill="#5b7187" stroke="#5b7187" stroke-width="16.0" stroke-linecap="butt" d="m213.57097 384.00656l26.42772 72.60956l26.427704 -72.60956z" fill-rule="evenodd"/><g filter="url(#shadowFilter-p.1)"><use xlink:href="#p.1" transform=""/></g><defs><filter id="shadowFilter-p.1" filterUnits="userSpaceOnUse"><feGaussianBlur in="SourceAlpha" stdDeviation="30.5" result="blur"/><feComponentTransfer in="blur" color-interpolation-filters="sRGB"><feFuncR type="linear" slope="0" intercept="0.8862745"/><feFuncG type="linear" slope="0" intercept="0.7254902"/><feFuncB type="linear" slope="0" intercept="0.43529412"/><feFuncA type="linear" slope="0.5" intercept="0"/></feComponentTransfer></filter></defs><g id="p.1"><path fill="#b07f2e" d="m161.40027 239.99081c0 -43.408707 35.189713 -78.59842 78.59842 -78.59842c20.845612 0 40.837402 8.280869 55.577484 23.020935c14.740051 14.740067 23.020935 34.731888 23.020935 55.577484c0 43.408722 -35.189697 78.59842 -78.59842 78.59842c-43.408707 0 -78.59842 -35.189697 -78.59842 -78.59842z" fill-rule="evenodd"/><path stroke="#e2b96f" stroke-width="4.0" stroke-linejoin="round" stroke-linecap="butt" d="m161.40027 239.99081c0 -43.408707 35.189713 -78.59842 78.59842 -78.59842c20.845612 0 40.837402 8.280869 55.577484 23.020935c14.740051 14.740067 23.020935 34.731888 23.020935 55.577484c0 43.408722 -35.189697 78.59842 -78.59842 78.59842c-43.408707 0 -78.59842 -35.189697 -78.59842 -78.59842z" fill-rule="evenodd"/></g><path fill="#000000" fill-opacity="0.0" d="m70.29306 70.28519l114.14174 114.14174" fill-rule="evenodd"/><path stroke="#5b7187" stroke-width="16.0" stroke-linejoin="round" stroke-linecap="butt" d="m70.29306 70.28519l46.259483 46.259483" fill-rule="evenodd"/><path fill="#5b7187" stroke="#5b7187" stroke-width="16.0" stroke-linecap="butt" d="m97.865326 135.23189l70.02994 32.655502l-32.655502 -70.02994z" fill-rule="evenodd"/><path fill="#000000" fill-opacity="0.0" d="m409.7043 70.28519l-114.14172 114.14174" fill-rule="evenodd"/><path stroke="#5b7187" stroke-width="16.0" stroke-linejoin="round" stroke-linecap="butt" d="m409.7043 70.28519l-46.25946 46.259483" fill-rule="evenodd"/><path fill="#5b7187" stroke="#5b7187" stroke-width="16.0" stroke-linecap="butt" d="m344.7576 97.85745l-32.655487 70.02994l70.02994 -32.655502z" fill-rule="evenodd"/></g></svg>